<svg version="1.2" xmlns="http://www.w3.org/2000/svg" viewBox="0 0 936 1561" width="936" height="1561">
	<title>Americanascom2011_mg-svg</title>
	<style>
		.s0 { fill: black }
	</style>
	<g id="black">
		<path id="Layer" class="s0" d="m0 0h936v203.7q-468 0-936 0z" />
		<path id="Layer" fill-rule="evenodd" class="s0" d="m263.3 388.4c63.5-28.8 134-36.8 203-36.8c65.3 0.3 130.9 11.2 191.8 35.1c21.4 8.5 42.7 17.7 61.8 30.9c26.7 18.1 48.8 43.4 61.9 73.1c9.7 21.9 14.7 45.7 15.9 69.7c3.5 110.9 2.4 222 2.8 333c-0.1 55.3 0.2 110.5 2.6 165.8c0.7 15.9 0.4 32.3 5.7 47.6c4.5 13.4 13.4 25.3 24.9 33.6c3.6 2.4 6.8 5.6 8.2 9.8c3.4 8.8 5 18.2 8.3 27.1c-70.6 0.3-141.1-0.6-211.6 0.3c-6.8 0-14.2-0.1-19.8-4.4c-4.6-3.6-6.4-9.5-7.5-15q-7.2-37.1-14.3-74.2c-20.5 18.7-40.3 38.1-63 54.2c-30.2 21.8-63.8 39.3-99.5 50.1c-38.5 11.8-79.2 15.8-119.3 13.3c-49.6-3.4-98.9-19.3-139.5-48.6c-25.4-18.3-47.1-42.2-61.4-70.2c-11.4-21.5-16.6-45.5-20.8-69.3c-7-40.5-7.7-82.5 1.7-122.6c8.9-38.2 27.7-74.2 55.2-102.2c30-31.1 69-52.2 109.8-65.2c23.7-7.8 48.3-12.4 72.8-16.9c56.1-10.1 112.8-17 169.1-26c21.7-3.3 43.4-9.3 62.1-21c14.8-9.2 25.9-24.9 27.7-42.5c1.6-16.4-0.3-33.4-6.9-48.6c-6.5-14.8-19.3-26.3-34.3-32.2c-43.1-16.7-91-21.4-136.5-12.5c-20.9 4.3-43 9.5-59.1 24.5c-23.4 20.9-32.5 52.2-39.6 81.6q-99.2 0-198.4 0c-1.6-53.3 14.1-106.8 42.6-151.7c24.9-39.1 61-71.3 103.6-89.8zm196.7 435.9c-26.1 6.5-52.5 12.1-78.3 19.7c-17.7 5.6-35.9 11.5-50.2 23.7c-21.7 17.5-33.3 45.3-34.4 72.8c-1.2 26.7 4.4 55 21.6 76.1c14.2 17.6 36.1 27.6 58.3 30.3c35.7 4.2 72.1-0.7 106.2-12c26.5-9.1 51.8-23.4 70.4-44.8c16-18.2 26.1-41.2 30.3-65c7.6-43.8 7.6-88.3 10.4-132.6c-44.7 10.6-89.5 21.1-134.3 31.8z" />
		<path id="Layer" class="s0" d="m0 1357.4q468 0 936 0v203.6h-936z" />
	</g>
</svg>
